<?xml version="1.0" standalone="no"?>
<!DOCTYPE svg PUBLIC "-//W3C//DTD SVG 20010904//EN"
 "http://www.w3.org/TR/2001/REC-SVG-20010904/DTD/svg10.dtd">
<svg version="1.0" xmlns="http://www.w3.org/2000/svg"
 width="500.000000pt" height="500.000000pt" viewBox="0 0 500.000000 500.000000"
 preserveAspectRatio="xMidYMid meet">
<metadata>
Created by potrace 1.11, written by Peter Selinger 2001-2013
</metadata>
<g transform="translate(0.000000,500.000000) scale(0.100000,-0.100000)"
fill="#000000" stroke="none">
<path d="M2190 4675 c-293 -37 -622 -154 -869 -308 -187 -116 -394 -297 -538
-469 -218 -262 -388 -618 -457 -959 -115 -569 0 -1167 317 -1644 411 -618
1091 -985 1827 -985 430 0 845 121 1190 348 150 99 209 146 354 290 345 341
549 740 627 1226 28 172 30 470 5 631 -35 225 -98 434 -186 622 -328 695 -970
1158 -1740 1253 -111 13 -410 11 -530 -5z m1337 -722 c-6 -139 -32 -354 -60
-488 l-13 -60 -254 -8 c-351 -11 -768 -31 -774 -38 -7 -6 -26 -562 -20 -568 2
-2 61 10 131 28 217 52 413 78 633 83 l115 3 22 -130 c25 -151 43 -340 43
-459 l0 -83 -207 -6 c-221 -7 -724 -45 -734 -56 -14 -13 22 -705 37 -720 16
-16 1070 113 1106 135 8 5 24 -44 38 -116 32 -166 63 -550 44 -550 -5 0 -45
-7 -89 -14 -89 -16 -389 -47 -680 -71 -336 -27 -1135 -63 -1135 -51 0 4 -18
132 -40 284 -122 859 -232 2052 -242 2641 l-3 164 185 34 c709 126 1262 188
1714 192 l189 1 -6 -147z"/>
</g>
</svg>
